<svg width="25" height="22" viewBox="0 0 25 22" fill="none" xmlns="http://www.w3.org/2000/svg">
<path d="M23.6312 0C21.318 0 18.7115 1.29154 15.9096 3.81989C13.9439 5.59302 12.2606 7.6179 11.0986 9.15023C10.1239 8.85124 9.09331 8.78636 8.08928 8.96079C7.08526 9.13523 6.1357 9.54412 5.3166 10.1548C4.4975 10.7654 3.83161 11.5608 3.37223 12.4773C2.91285 13.3938 2.67274 14.406 2.67112 15.4328C2.67112 18.8477 0.911776 20.3691 0.824895 20.4457C0.683409 20.5559 0.580696 20.7089 0.531831 20.8823C0.482966 21.0556 0.490523 21.2402 0.553392 21.4089C0.608936 21.5821 0.717919 21.7328 0.864441 21.8391C1.01096 21.9454 1.18736 22.0018 1.3679 22H9.1872C10.206 21.9983 11.2103 21.7563 12.1197 21.2934C13.0291 20.8304 13.8183 20.1593 14.4242 19.3337C15.0301 18.5082 15.4358 17.5512 15.6089 16.5393C15.782 15.5274 15.7176 14.4888 15.4209 13.5064C16.9413 12.3353 18.9505 10.6388 20.7098 8.65769C23.2185 5.83382 24.5 3.20696 24.5 0.87562C24.5 0.643391 24.4085 0.420674 24.2455 0.256463C24.0826 0.0922525 23.8616 0 23.6312 0V0ZM12.7059 9.9164C13.0208 9.51142 13.3901 9.05172 13.8136 8.54824C14.6829 9.13974 15.4313 9.89404 16.0182 10.7701C15.5187 11.197 15.0625 11.5691 14.6607 11.8865C14.158 11.0952 13.4911 10.423 12.7059 9.9164V9.9164ZM17.3323 9.59899C16.6825 8.68135 15.8862 7.87874 14.9757 7.22387C17.1042 4.90347 19.9713 2.36417 22.6646 1.84975C22.1542 4.56417 19.6347 7.45372 17.3323 9.59899V9.59899Z" fill="black"/>
</svg>
