<svg width="16" height="16" viewBox="0 0 16 16" fill="none" xmlns="http://www.w3.org/2000/svg">
<path opacity="0.2" d="M7.99902 0.5C9.98723 0.503812 11.893 1.29529 13.2988 2.70117C14.6168 4.0191 15.3949 5.77628 15.4902 7.62891L15.5 8.00098C15.4998 9.48399 15.0603 10.9339 14.2363 12.167C13.4122 13.4003 12.2405 14.361 10.8701 14.9287C9.49973 15.4963 7.99191 15.6448 6.53711 15.3555C5.08225 15.0661 3.74518 14.3526 2.69629 13.3037C1.6474 12.2548 0.93392 10.9177 0.644531 9.46289C0.355194 8.00809 0.503657 6.50027 1.07129 5.12988C1.63895 3.7595 2.59968 2.58776 3.83301 1.76367C5.06611 0.939743 6.516 0.500193 7.99902 0.5ZM7.38477 6.26953C7.08895 6.26953 6.80488 6.38653 6.5957 6.5957C6.38653 6.80488 6.26953 7.08895 6.26953 7.38477C6.26957 7.68037 6.38678 7.96374 6.5957 8.17285C6.6808 8.25795 6.7792 8.32687 6.88477 8.37988V11.6924C6.88479 11.9882 7.00178 12.2723 7.21094 12.4814C7.42011 12.6906 7.7042 12.8076 8 12.8076H8.61523C8.911 12.8076 9.19513 12.6905 9.4043 12.4814C9.61345 12.2723 9.73045 11.9882 9.73047 11.6924C9.73047 11.3966 9.61347 11.1125 9.4043 10.9033C9.31902 10.8181 9.22105 10.7484 9.11523 10.6953V7.38477C9.11523 7.08898 8.99819 6.80487 8.78906 6.5957C8.57989 6.38653 8.29582 6.26953 8 6.26953H7.38477ZM7.8457 3.19238C7.46844 3.1925 7.10662 3.3426 6.83984 3.60938C6.57309 3.8762 6.42289 4.23794 6.42285 4.61523C6.42285 4.89669 6.50672 5.17223 6.66309 5.40625C6.81945 5.64015 7.04182 5.82202 7.30176 5.92969C7.56179 6.0374 7.84797 6.06565 8.12402 6.01074C8.39989 5.95581 8.65361 5.82094 8.85254 5.62207C9.05156 5.42305 9.18728 5.16863 9.24219 4.89258C9.29697 4.61668 9.26878 4.3302 9.16113 4.07031C9.05343 3.81049 8.87056 3.58891 8.63672 3.43262C8.40269 3.27625 8.12716 3.19238 7.8457 3.19238Z" fill="black" stroke="black"/>
</svg>
